<svg xmlns="http://www.w3.org/2000/svg" viewBox="1269 4325 197.743 80"><defs><style>.a{opacity:0.2;}</style></defs><g class="a" transform="translate(1269 4325)"><g transform="translate(153.103 0)"><path d="M251.159,1.5h-2.508V9.592h-2.006V1.5H244.2V0h6.959Zm7.649,8.088V2.508l-1.881,4.953a.5.5,0,0,1-.5.313h-.313a.471.471,0,0,1-.439-.313l-1.881-4.953V9.592h-1.944V.94a.978.978,0,0,1,1-.94h1.129a1.286,1.286,0,0,1,1.191.815l1.191,3.2,1.191-3.2A1.226,1.226,0,0,1,258.745,0h1.129a.964.964,0,0,1,.94.94V9.592Z" transform="translate(-244.2 0)"/></g><g transform="translate(0 61.881)"><path d="M5.643,111.114a19.746,19.746,0,0,1-4.765,4.64L0,114.562a19.209,19.209,0,0,0,4.639-4.326ZM.564,101.271H5.392c.376-.815.69-1.63,1.066-2.571l1.379.313q-.376,1.034-.94,2.257H16.8v1.379H6.27A27.719,27.719,0,0,1,3.2,107.477H8.464v-2.947H9.906v2.884H16.05v1.317H9.906v6.207a1.624,1.624,0,0,1-1.818,1.818H6.019l-.313-1.379c.69.063,1.317.125,1.818.125.627,0,.94-.313.94-.878v-5.831H1.755l-.313-1.254a22.973,22.973,0,0,0,3.323-4.89H.564ZM13.1,110.236a33.726,33.726,0,0,1,4.451,4.577l-1,1a28.431,28.431,0,0,0-4.326-4.7Z" transform="translate(0 -98.7)"/><path d="M47.3,101.947v4.263H45.922v-2.947H40.655a20.227,20.227,0,0,0,2.132,6.395,17.516,17.516,0,0,0,3.2-2.884l1.066.94a15.051,15.051,0,0,1-3.511,3.009,16.784,16.784,0,0,0,4.7,4.7l-.815,1.317a19.512,19.512,0,0,1-7.962-13.1,19.972,19.972,0,0,1-3.072,5.141v6.207a31.9,31.9,0,0,0,4.7-1.818l.251,1.317a39.7,39.7,0,0,1-6.458,2.32l-.313-1.254a.84.84,0,0,0,.5-.815v-4.514a16.932,16.932,0,0,1-3.386,2.508L31,111.476a17.176,17.176,0,0,0,7.21-8.15H33.633v2.947H32.254v-4.263h6.458A26.792,26.792,0,0,0,39.527,99l1.379.188q-.376,1.6-.752,2.821H47.3Z" transform="translate(-11.564 -98.812)"/><path d="M67.734,102.2H69.3v9.467a5.506,5.506,0,0,1-.94,3.448,4.023,4.023,0,0,1-3.386,1.254,4.3,4.3,0,0,1-3.009-1.066,4.146,4.146,0,0,1-1.066-3.135v-.5h1.567v.439c0,1.881.815,2.821,2.508,2.821a2.442,2.442,0,0,0,2.069-.815,3.886,3.886,0,0,0,.627-2.508v-9.4Z" transform="translate(-22.718 -100.006)"/><path d="M85.813,111.1h-1.5a2.111,2.111,0,0,0-.752-1.379,3.128,3.128,0,0,0-1.818-.439,2.987,2.987,0,0,0-1.63.376,1.164,1.164,0,0,0-.627,1.066,1.236,1.236,0,0,0,.878,1.066c.313.125,1,.376,2.069.69a10.255,10.255,0,0,1,2.571.94,2.292,2.292,0,0,1,1.191,2.069c0,2.069-1.442,3.135-4.263,3.135-2.633,0-4.075-1.129-4.326-3.448h1.5a2.708,2.708,0,0,0,.815,1.693,3.307,3.307,0,0,0,1.944.439c1.818,0,2.7-.564,2.7-1.693a1.447,1.447,0,0,0-.94-1.317,16.748,16.748,0,0,0-2.132-.627,10.026,10.026,0,0,1-2.508-.878,2.162,2.162,0,0,1-1.129-1.944,2.332,2.332,0,0,1,1.129-2.006,4.634,4.634,0,0,1,2.759-.752C84.12,107.968,85.5,108.972,85.813,111.1Z" transform="translate(-28.948 -102.2)"/><path d="M101.539,109.53a6.844,6.844,0,0,1,1.191,4.075H94.767a4.16,4.16,0,0,0,.94,2.633,2.888,2.888,0,0,0,2.257.94,2.961,2.961,0,0,0,2.006-.627,3.241,3.241,0,0,0,1-1.567h1.567a4.805,4.805,0,0,1-1.379,2.382,4.746,4.746,0,0,1-3.2,1.129,4.49,4.49,0,0,1-3.448-1.442,6.24,6.24,0,0,1-.063-7.586A4.2,4.2,0,0,1,97.9,107.9,4.129,4.129,0,0,1,101.539,109.53Zm-5.768.5a3.9,3.9,0,0,0-.94,2.32h6.27q-.282-3.2-3.2-3.2A2.882,2.882,0,0,0,95.771,110.032Z" transform="translate(-34.767 -102.132)"/><path d="M117.068,108.088v1.567a5.487,5.487,0,0,0-1.5-.188,2.249,2.249,0,0,0-1.944,1,3.771,3.771,0,0,0-.815,2.382v5.329h-1.5V108.151h1.5v1.755a3.029,3.029,0,0,1,1.066-1.379,2.678,2.678,0,0,1,1.818-.627A4.309,4.309,0,0,1,117.068,108.088Z" transform="translate(-41.519 -102.132)"/><path d="M132.927,116.655l-.313-1.379c.752.063,1.254.063,1.567.063.439,0,.69-.188.69-.627v-4.828c-.815.313-1.567.564-2.257.815l-.313-1.379a20.3,20.3,0,0,0,2.571-.815v-4.389h-2.32V102.8h2.32V99.1h1.442v3.7h1.944v1.317h-1.944v3.762c.752-.376,1.317-.627,1.693-.878v1.442c-.376.188-.94.5-1.693.815v5.831c0,1.066-.564,1.567-1.63,1.567Zm5.517-8.84h11.1v1.254h-4.828v2.194h4.075v1.254h-4.075v2.508a17.315,17.315,0,0,0,2.759.188c.94,0,1.818-.063,2.633-.125l-.376,1.379H147.6q-3.856,0-5.266-.752a4.947,4.947,0,0,1-2.006-2.194,11.849,11.849,0,0,1-1.944,3.323l-1-.878a10.174,10.174,0,0,0,2.445-6.019l1.254.125a10.31,10.31,0,0,1-.313,2.006,4.858,4.858,0,0,0,2.132,2.508l.439.188v-5.643h-4.89v-1.317Zm1.379-8.088h8.464V106.5h-8.464Zm1.379,2.821h5.768v-1.693H141.2Zm5.705,2.759v-1.693H141.14v1.693Z" transform="translate(-49.353 -98.849)"/><path d="M165.471,105.885a28.021,28.021,0,0,1-2.132,2.508l-.439-1.5a22.691,22.691,0,0,0,4.639-8.088l1.317.627a20.211,20.211,0,0,1-1.944,4.263v13.1h-1.442Zm3.511-2.821h2.508V98.988h1.442v4.075h3.448V98.988h1.442v4.075h2.571v1.379h-2.571v4.577h3.135v1.317H168.417v-1.379h3.072V104.38h-2.508Zm4.326,8.715a22.231,22.231,0,0,1-3.574,4.953l-1.191-.878a17.73,17.73,0,0,0,3.511-4.7Zm-.439-2.821h3.448V104.38h-3.448Zm4.075,2.069a41.172,41.172,0,0,1,3.762,4.828l-1.254.878a42.172,42.172,0,0,0-3.636-4.953Z" transform="translate(-60.768 -98.737)"/><path d="M194.715,116.618,194.4,115.3c.564.063,1.066.125,1.442.125a.776.776,0,0,0,.815-.878v-4.639c-.815.313-1.63.627-2.382.878l-.376-1.379a19.123,19.123,0,0,0,2.7-.878v-4.577h-2.382v-1.317H196.6V99h1.379v3.574h2.069v1.317h-2.069V107.9c.878-.439,1.567-.815,2.069-1.066v1.379c-.627.376-1.317.69-2.069,1.066v5.58c0,1.191-.564,1.755-1.693,1.755Zm6.081-14.8h4.639V99.063h1.379v2.759h4.7v1.317h-4.7v3.2h3.95v1.254a12.964,12.964,0,0,1-3.386,5.455,18.471,18.471,0,0,0,4.7,2.633l-.752,1.191a20.227,20.227,0,0,1-4.89-2.947,19.2,19.2,0,0,1-5.517,2.947l-.69-1.191a16.284,16.284,0,0,0,5.2-2.7,11.825,11.825,0,0,1-3.26-5.392h-1v-1.317h4.263v-3.2H200.8Zm2.7,5.831a10.3,10.3,0,0,0,2.884,4.577,12.236,12.236,0,0,0,2.947-4.577Z" transform="translate(-72.333 -98.812)"/><path d="M225.964,103.639h7.524V99h1.379v4.639h7.586v1.317h-6.144a20.35,20.35,0,0,0,6.708,8.652l-.94,1.191a23.725,23.725,0,0,1-7.085-9.781h-.063v11.85H233.55v-11.85h-.063a20.964,20.964,0,0,1-7.335,9.906l-.752-1.254a18.516,18.516,0,0,0,6.771-8.715h-6.144v-1.317ZM238,99a25.241,25.241,0,0,1,2.7,3.135l-1.129.815a23.1,23.1,0,0,0-2.633-3.26Z" transform="translate(-84.083 -98.812)"/><path d="M264.425,99h1.442v2.571h7.649v1.379h-7.649V105.9h5.2v1.254a15.371,15.371,0,0,1-4.7,5.58q1.6.846,3.2,1.5c1.317.5,2.821.94,4.451,1.379l-.815,1.254a38.625,38.625,0,0,1-4.765-1.567,22.747,22.747,0,0,1-3.26-1.693,28.181,28.181,0,0,1-7.962,3.323l-.815-1.254a29.007,29.007,0,0,0,7.586-2.884,14.7,14.7,0,0,1-2.633-2.571,8.756,8.756,0,0,1-1.5-2.947h-1.5V105.9h6.082V102.95h-7.586v-1.379h7.586Zm5.078,8.213h-8.276a7.667,7.667,0,0,0,1.63,2.759,11.87,11.87,0,0,0,2.32,2.006A14.775,14.775,0,0,0,269.5,107.213Z" transform="translate(-95.648 -98.812)"/><path d="M287.715,116.618l-.313-1.379c.69.063,1.191.063,1.5.063.5,0,.752-.251.752-.815v-4.7c-1,.313-1.755.627-2.382.752l-.376-1.379c.94-.251,1.818-.5,2.759-.752v-4.389h-2.382v-1.254h2.382v-3.7H291.1v3.7h2.006v1.379H291.1v3.824q.94-.376,2.069-.94v1.442l-2.069.94v5.58a1.541,1.541,0,0,1-1.693,1.755h-1.693Zm6.081-8.276h6.959V106.9h1.379v1.442h2.633v1.317h-2.633v5.266c0,1.191-.564,1.755-1.693,1.755h-2.633l-.313-1.317c1.129.063,1.944.063,2.445.063a.729.729,0,0,0,.815-.815v-4.953H293.8ZM298.436,99h1.442v2.069H303.7v1.254h-3.824v2.32h4.64v1.317h-10.6v-1.317h4.514v-2.32h-3.824v-1.254h3.824Zm-2.884,11.473a33.3,33.3,0,0,1,2.633,3.072l-1.129.815a24.94,24.94,0,0,0-2.633-3.2Z" transform="translate(-107.025 -98.812)"/></g><g transform="translate(28.15 0.251)"><path d="M235.665,47.369,230.9,66.617h11.787l3.574-14.232a5.571,5.571,0,0,1,5.392-4.2H254.1l1.755-7.085H243.815A8.17,8.17,0,0,0,235.665,47.369Z" transform="translate(-114.286 -15.582)"/><path d="M127.765,47.834l-1.63,6.458a3.424,3.424,0,0,0,3.323,4.263h12.476a1.027,1.027,0,0,1,1,1.317l-.188.69a1.75,1.75,0,0,1-1.693,1.317H124.191L123,66.58h23.762a6.844,6.844,0,0,0,6.708-5.266l2.006-8.025a3.424,3.424,0,0,0-3.323-4.263H139.238a.749.749,0,0,1-.69-.878l.376-1.63a1.072,1.072,0,0,1,1-.815h17.555l1.191-4.7H136.48A9.038,9.038,0,0,0,127.765,47.834Z" transform="translate(-74.034 -15.545)"/><path d="M208.64,61.6m-1.254,4.953L208.64,61.6H190.709a1.34,1.34,0,0,1-1.317-1.693l.815-3.26h19.687l2.571-10.408a4.139,4.139,0,0,0-4.013-5.141H188.766a8.2,8.2,0,0,0-8.025,6.27L177.23,61.476a4.139,4.139,0,0,0,4.013,5.141l26.144-.063M200.3,47.746l-1,3.887h-7.9l1-4.013a2.072,2.072,0,0,1,2.006-1.567h4.514A1.38,1.38,0,0,1,200.3,47.746Z" transform="translate(-94.22 -15.583)"/><path d="M93.8,38.707,103.333.4H66.906V.525a2.77,2.77,0,0,0,2.7,3.448h16.74L78.38,35.949a8.4,8.4,0,0,1-8.15,6.332H56.5L44.9,51.372H77.565A16.7,16.7,0,0,0,93.8,38.707Z" transform="translate(-44.9 -0.4)"/></g></g></svg>