<svg xmlns="http://www.w3.org/2000/svg" viewBox="1592 3088 80 80"><defs><style>.a{fill:#fff;}</style></defs><g transform="translate(1592 3088)"><g transform="translate(11.56 57.194)"><path class="a" d="M264.241,259.772c.337.314.629.539.718.9.022.112.067.224.18.247.157.045.2-.112.292-.2.09-.112.112-.292,0-.337-.471-.2-.426-.584-.449-.965a.485.485,0,0,0-.269-.426c-.18.045-.112.269-.314.337-.4-.247-.022-.718-.247-1.01-.382.135-.539.022-.584-.4-.023-.135-.045-.292-.067-.426-.067-.292-.224-.359-.471-.112-.045-.269.067-.4.247-.426.449-.045.224.449.471.606.629-.18.629-.18.718.763.314.067.157-.337.427-.4.741-.157.965-.045,1.122.741.067.382.2.561.584.18a4.526,4.526,0,0,0-1.8-2.222c0-.2.157-.382.494-.426.314-.045.382.18.471.426a3.885,3.885,0,0,0,1.055,1.863c.292-.269.561-.539.853-.808.157-.135.337-.247.516-.112.224.18,0,.337-.067.494-.157.292-.337.561-.516.853-.157-.2-.022-.4-.09-.584-.426.179-.516.269-.426.628s-.112.427-.359.494c-.606.157-.786.561-.449,1.077a2.707,2.707,0,0,1,.18.426c.359-.561.4-1.279,1.033-1.616.718.382.337,1.1.471,1.661a.739.739,0,0,0,.673-.359c.18-.18.337-.4.494-.584.18-.224.382-.247.651-.045-.225.494-.853.584-1.01,1.167.2.157.427.337.628.516.606.516.606.988,0,1.5a2.07,2.07,0,0,1-1.1.629c.337-.718,1.324-1.347.09-2.155a9.533,9.533,0,0,1-1.279,2.222c-.2-.045-.225-.247-.18-.471a.646.646,0,0,1,.157-.4c.673-.7.269-1.549.337-2.334a.308.308,0,0,0-.18-.292c-.224.157-.224.426-.314.651a4.561,4.561,0,0,1-.2.494.47.47,0,0,1-.516.292c-.224-.022-.292-.224-.337-.427a4.534,4.534,0,0,1-.09-.584c-.292.112-.314.4-.471.539A11.624,11.624,0,0,1,262.4,259.3a.616.616,0,0,1,.875.18c.18.2.314.449.494.651.135.157.292.359.516.269C264.51,260.288,264.308,260.041,264.241,259.772Zm1.3-.7c.224-.7.045-.988-.561-.92C265.026,258.537,264.981,258.964,265.543,259.076Zm.135,1.145c.112-.269.112-.539.359-.718-.247.045-.494-.426-.673-.067C265.206,259.682,265.408,259.974,265.677,260.22Z" transform="translate(-215.06 -255.866)"/><path class="a" d="M192.257,299.528c.269-.045.494-.224.853-.157-.09.584-.673.539-.965.875.337.359.853.157,1.235.359-.022.314-.292.359-.471.4-.382.112-.427.314-.337.651.09.314.135.651.225.988s.045.561-.4.628a7.523,7.523,0,0,1-.337-1.773.754.754,0,0,0-.628.247c-.247.269-.494.224-.741-.09a9.142,9.142,0,0,1,.853-.382.554.554,0,0,0,.337-.9c-.516.112-.988.584-1.639.314a2.891,2.891,0,0,0,1.8-2.514A7.688,7.688,0,0,0,189.9,299.3c-.4.359-.875.628-1.257,1.033-.18.2-.382.045-.516-.135-.135-.2-.269-.382-.539-.337-.022-.18.067-.2.157-.224a7.111,7.111,0,0,0,2.559-1.055.3.3,0,0,0,.18-.426c-.112-.4-.224-.786-.359-1.235a1.427,1.427,0,0,0-.471.651c-.135.247-.337.449-.606.4a.629.629,0,0,1-.494-.629,1.752,1.752,0,0,1,.112-.875c.112.135.224.224.337.359a1.263,1.263,0,0,0,.875-.516c.18-.269-.112-.651-.045-1.01a.542.542,0,0,1,.673.539,9.109,9.109,0,0,0,.606,2.222,1.331,1.331,0,0,0,.426-1.1,23.139,23.139,0,0,0-.112-2.492c0-.18-.112-.449.224-.494.314-.045.292.247.337.427.314.875-.112,1.728-.09,2.6.157.067.247-.112.382-.135.224.337-.359.471-.18.853.471-.135.988-.292,1.481-.449a1.33,1.33,0,0,1,.427-.112c.135,0,.314.045.314.224a.218.218,0,0,1-.247.224c-.561.022-1.01.359-1.639.4.269.247.426.471.292.763-.112.269-.382.427-.561.651-.022.045-.067.09-.09.135A.174.174,0,0,0,192.257,299.528Z" transform="translate(-157.038 -285.185)"/><path class="a" d="M55.361,256.214a1.936,1.936,0,0,0,1.1,1.122.5.5,0,0,0,.606-.09,2.454,2.454,0,0,1,.382-.292c.382-.247.606-.561.359-1.033a.609.609,0,0,1,.067-.606c.2.292.359.539.561.831a2.275,2.275,0,0,0,1.481-1.347.655.655,0,0,1-.157,1.145,3.5,3.5,0,0,0-.629.359c-.247.157-.4.314-.2.606.157.247-.045.382-.247.494a2.528,2.528,0,0,1-.292-.224c-.112-.067-.2-.157-.314-.224a3.163,3.163,0,0,0-.853.718c.337.2.651.4.965.561.382.2.269.494.18.786-.09.269-.2.471-.584.4a7.366,7.366,0,0,1-1.167-.18,1.265,1.265,0,0,1,0,.292c-.09.494-.337.629-.786.4a5.542,5.542,0,0,1-.606-.382c-.314-.18-.516-.09-.516.292a2.543,2.543,0,0,0,.247.92,7.126,7.126,0,0,1,.314.9c.045.269.135.628-.18.763-.269.112-.494-.157-.673-.359.539-.718.247-1.414.045-2.177a3.689,3.689,0,0,0-.875.763c-.269.224-.516.471-.853.135a.725.725,0,0,1-.067-1.1,1.37,1.37,0,0,0,.157.314c.224.292.449.449.786.135a5.986,5.986,0,0,0,.718-.629c-.943-.269-2.02.067-2.828-.673a1.9,1.9,0,0,1,.9-.359c.135.18-.157.247-.045.4a3.153,3.153,0,0,0,1.93.247A2.492,2.492,0,0,1,55.361,256.214Zm-.022.718a2.747,2.747,0,0,0-.9,1.459l.449.224c-.067.09-.247.067-.18.269.471.09.7-.247.943-.516-.045-.2-.269-.269-.247-.471a.808.808,0,0,1,.516.045c.2.067.382.067.471-.2A1.934,1.934,0,0,1,55.338,256.932Zm0,2.222c.18.426.629.247.786.471.157-.135.314-.269.471-.382-.112-.09-.269-.18-.292-.269-.112-.831-.426-.314-.673-.112A1.8,1.8,0,0,0,55.338,259.155Zm1.122-.988c.718.943.718.943,1.257.471C57.269,258.032,56.82,257.875,56.461,258.167Z" transform="translate(-51.5 -254.8)"/><path class="a" d="M97.32,290.636c.584.292,1.212.09,1.661.516a.587.587,0,0,1,.2.4c-.112.157-.2.045-.292.022-.292-.112-.584-.247-.9-.359-1.01-.359-1.212-.292-1.886.629.135.2.382.224.561.337a6.329,6.329,0,0,1,.651.4c.224.18.516.4.269.718-.247.292-.516.022-.7-.135a7.1,7.1,0,0,0-1.3-.988c-.359-.2-.359-.427-.067-.741.2-.2.494-.292.673-.606a8.934,8.934,0,0,0-2.2.112c-.382.022-.763.045-1.145.045-.18,0-.382-.045-.359-.292a.4.4,0,0,1,.382-.426h.135c.831,0,.831,0,1.392-.7a6.372,6.372,0,0,1-.629-.516.513.513,0,0,1-.09-.741c.2-.224.426.045.584.157.629.449.965.359,1.235-.382a.623.623,0,0,1,.4.9,1.086,1.086,0,0,1-.741.808,1,1,0,0,0-.539.471,2.244,2.244,0,0,0,2.649-.539.547.547,0,0,0,.135-.494c-.09-.4.135-.4.4-.27a.535.535,0,0,1,.247.831A2.335,2.335,0,0,1,97.32,290.636Z" transform="translate(-83.291 -280.625)"/><path class="a" d="M149.357,299.232c.314-.292.539-.045.763-.112a.521.521,0,0,0,.18-.449c-.292-.292-.359.269-.629.135a.664.664,0,0,0-.292-.561c.382,0,.516-.157.539-.426.022-.314-.247-.224-.4-.314-.112-.067-.247-.09-.314-.224.247-.292.718.269.92-.247A2.708,2.708,0,0,0,150.3,296c.4.18.494.494.292,1.01-.157.382-.067.539.292.539.2,0,.224-.157.292-.269q.3-.606.606-1.28c.763.629.067,1.1-.157,1.594.337.224.763.224.988.651.225.382.067.584-.224.741-.359.18-.786.224-1.122.427C150.569,299.906,150.03,299.389,149.357,299.232Zm1.818-.426c-.628.112-.628.112-.718.426.449.2,1.212-.292,1.481-.965-.247-.112-.471-.337-.763-.112C150.906,298.334,151.018,298.559,151.175,298.806Zm-.4-.875c-.494-.2-.561-.18-.7.4C150.479,298.514,150.681,298.312,150.771,297.93Z" transform="translate(-127.27 -286.752)"/><path class="a" d="M238.757,289c-.426.135-.718.628-1.257.225.269-.225.471-.427.7-.584a.7.7,0,0,0,.292-.943,8.4,8.4,0,0,1-.269-1.077c-.045-.2-.135-.494.18-.561s.4.2.471.427c.09.337.157.673.224,1.032.359-.135.427-.539.741-.718.224.067.359.18.2.449-.067.135-.067.337-.2.426-.651.449-.651,1.01-.449,1.728a5.109,5.109,0,0,1,.112,2.469,1.671,1.671,0,0,1-.763,1.19A8.041,8.041,0,0,0,238.757,289Z" transform="translate(-195.749 -279.038)"/><path class="a" d="M136.651,314.128a1.939,1.939,0,0,0-1.1.4c-.786.427-1.437,1.01-2.177,1.5a1.116,1.116,0,0,1-.673.314.962.962,0,0,1,.539-.786,29.639,29.639,0,0,1,2.941-1.728,1.2,1.2,0,0,0,.561-.4.567.567,0,0,0-.561-.112c-.269.045-.539.09-.808.157-.831.157-.853.157-1.594-.4a.935.935,0,0,1,.651-.045,6.69,6.69,0,0,0,2.671-.022.607.607,0,0,1,.516.09.352.352,0,0,1,.2.314c0,.18-.135.2-.269.224a2.683,2.683,0,0,0-.786.337c-.09,0-.224.022-.112.157Z" transform="translate(-114.473 -299.919)"/><path class="a" d="M250.9,300.619a7.3,7.3,0,0,1,2.334-1.077,1.989,1.989,0,0,1,.516,0c.247.067.539.225.494.494a.506.506,0,0,1-.651.4,7.872,7.872,0,0,0-2.177.18A.521.521,0,0,1,250.9,300.619Z" transform="translate(-206.141 -289.486)"/><path class="a" d="M149.92,324.4c.224.09.382.2.382.449a.546.546,0,0,1-.426.471,4.14,4.14,0,0,1-1.19.224,1.254,1.254,0,0,0,.606.988,1.355,1.355,0,0,1-.247.584c-.09.135-.18.292-.382.247s-.224-.247-.247-.426a3.246,3.246,0,0,0,0-.808,1.581,1.581,0,0,0-.516-.988C148.8,325.23,149.539,325.275,149.92,324.4Z" transform="translate(-126.261 -308.777)"/><path class="a" d="M139.626,324.716a.75.75,0,0,1-.157-1.01A7.93,7.93,0,0,1,140.636,322c.269.808-.606,1.145-.763,1.8.292.18.561-.112.943,0C140.389,324.11,140.007,324.4,139.626,324.716Z" transform="translate(-119.626 -306.916)"/><path class="a" d="M147.353,317.77a2.013,2.013,0,0,0,.9-.067.507.507,0,0,1,.651.269c.112.292-.157.4-.4.471-.247.09-.471.2-.269.606a4.057,4.057,0,0,1-1.728-.382c.516-.09,1.1.022,1.392-.539-.09-.247-.494-.022-.539-.359Z" transform="translate(-125.176 -303.561)"/><path class="a" d="M270.1,280.7c.359.045.561.292.9.18-.224.628.224,1.033.292,1.526C270.526,282.114,270.414,281.4,270.1,280.7Z" transform="translate(-221.032 -274.886)"/><path class="a" d="M210.05,299.589a1.988,1.988,0,0,1-1.01,1.122c.224-.337-.516-.718.067-1.055A.844.844,0,0,1,210.05,299.589Z" transform="translate(-173.551 -289.444)"/><path class="a" d="M146.28,303.363a7.1,7.1,0,0,1-.18-1.863A1.284,1.284,0,0,1,146.28,303.363Z" transform="translate(-124.865 -291.017)"/><path class="a" d="M214.39,328.805c.2-.269-.067-.382-.09-.561.2-.2.426-.314.673-.112.157.135.4.292.292.494C215.086,328.94,214.7,328.738,214.39,328.805Z" transform="translate(-177.757 -311.589)"/><path class="a" d="M201.649,317.243c-.359-.651.337-.584.516-.943C202.3,316.816,202.076,317.063,201.649,317.243Z" transform="translate(-167.867 -302.495)"/><path class="a" d="M266.234,266.9c.382.157.426.539.629.808-.292-.09-.449-.426-.786-.292C265.987,267.192,266.077,267.057,266.234,266.9Z" transform="translate(-217.884 -264.184)"/><path class="a" d="M203.771,333.008c.022.157-.112.224-.247.247-.157.022-.224-.112-.224-.247.022-.157.067-.337.292-.314C203.771,332.693,203.771,332.828,203.771,333.008Z" transform="translate(-169.226 -315.207)"/></g><g transform="translate(11.538 18.9)"><path class="a" d="M65.317,104.986,75.912,84.2H74.026L51.4,119.868h1.841L69.761,94.234,56.226,119.868h5.836L84.419,84.2H78.538Z" transform="translate(-51.4 -84.2)"/><path class="a" d="M126.249,191.2l-2.649,4.467h24.826l-.539-.9H129.571l.516-.808,17.284-.022-.584-1.01L130.738,193l.561-.875,15.129-.045-.516-.875Z" transform="translate(-107.393 -167.182)"/><path class="a" d="M184.532,87.612,182.4,91.024l16.992,28.844h8.822L186.71,84.2,185.3,86.512l16.117,26.532-1.571.045Z" transform="translate(-152.995 -84.2)"/></g><path class="a" d="M40,80A40,40,0,1,1,80,40,40.048,40.048,0,0,1,40,80ZM40,2.02A37.98,37.98,0,1,0,77.98,40,38.022,38.022,0,0,0,40,2.02Z"/><g transform="translate(14.231 13.76)"><path class="a" d="M63.49,89.224c-.067-.718-.09-1.459-.09-2.155a25.769,25.769,0,0,1,51.538,0c0,.718-.022,1.437-.09,2.155l-.9-.067c.067-.7.09-1.414.09-2.088a24.871,24.871,0,0,0-49.742,0c0,.673.022,1.392.09,2.088Z" transform="translate(-63.4 -61.3)"/><g transform="translate(6.42 42.2)"><path class="a" d="M111.349,258.638A25.758,25.758,0,0,1,92,249.884l.673-.584a24.882,24.882,0,0,0,37.351,0l.673.584A25.837,25.837,0,0,1,111.349,258.638Z" transform="translate(-92 -249.3)"/></g></g><g transform="translate(32.548 55.219)"><path class="a" d="M147.11,251.026h-.92v-3.479a3.329,3.329,0,0,1-1.19.7v-.831a2.878,2.878,0,0,0,.786-.449,1.708,1.708,0,0,0,.584-.763h.741Z" transform="translate(-145 -246.155)"/><path class="a" d="M162.39,249.749l.9-.09a.678.678,0,0,0,.18.4.51.51,0,0,0,.359.135.62.62,0,0,0,.494-.269,2.116,2.116,0,0,0,.247-1.1,1.086,1.086,0,0,1-.875.4,1.352,1.352,0,0,1-.988-.449,1.621,1.621,0,0,1-.4-1.145,1.648,1.648,0,0,1,.426-1.19,1.581,1.581,0,0,1,2.312.112,2.947,2.947,0,0,1,.471,1.863,2.9,2.9,0,0,1-.494,1.908,1.61,1.61,0,0,1-1.279.584,1.372,1.372,0,0,1-.92-.292A1.465,1.465,0,0,1,162.39,249.749Zm2.11-2.02a1.071,1.071,0,0,0-.2-.7.619.619,0,0,0-.471-.247.521.521,0,0,0-.426.2,1.052,1.052,0,0,0-.18.673,1.173,1.173,0,0,0,.18.7.537.537,0,0,0,.471.224.565.565,0,0,0,.449-.2A1.171,1.171,0,0,0,164.5,247.728Z" transform="translate(-158.417 -246)"/><path class="a" d="M182.675,251.026v-.965H180.7v-.808l2.088-3.053h.786v3.053h.606v.808h-.606v.965Zm0-1.8v-1.639l-1.1,1.639Z" transform="translate(-172.687 -246.155)"/><path class="a" d="M200.986,248.267a.991.991,0,0,1-.516-.427,1.036,1.036,0,0,1-.157-.584,1.221,1.221,0,0,1,.382-.9,1.555,1.555,0,0,1,1.077-.359,1.527,1.527,0,0,1,1.077.359,1.186,1.186,0,0,1,.382.9,1.129,1.129,0,0,1-.18.606.99.99,0,0,1-.494.4,1.306,1.306,0,0,1,.606.471,1.281,1.281,0,0,1,.2.718,1.388,1.388,0,0,1-.426,1.077,1.579,1.579,0,0,1-1.122.426,1.736,1.736,0,0,1-1.1-.337,1.376,1.376,0,0,1-.516-1.122,1.335,1.335,0,0,1,.2-.718A1.2,1.2,0,0,1,200.986,248.267Zm.112,1.122a.9.9,0,0,0,.2.606.653.653,0,0,0,.965.022.794.794,0,0,0,.18-.584.819.819,0,0,0-.18-.539.66.66,0,0,0-.494-.2.528.528,0,0,0-.494.224A.724.724,0,0,0,201.1,249.389Zm.09-2.065a.528.528,0,0,0,.157.426.659.659,0,0,0,.427.157.6.6,0,0,0,.426-1.01.541.541,0,0,0-.4-.157.559.559,0,0,0-.426.157A.613.613,0,0,0,201.188,247.324Z" transform="translate(-187.809 -246)"/></g><g transform="translate(4.377 4.534)"><path class="a" d="M26.032,176.365l-6.42.2-.022-.539,4.983-2.267-5.051.157L19.5,173.4l6.42-.2.022.539-4.983,2.267,5.051-.157Z" transform="translate(-19.5 -138.857)"/><path class="a" d="M23.172,157.889A4.854,4.854,0,0,1,20.7,157.1a1.532,1.532,0,0,1-.741-1.437,1.35,1.35,0,0,1,.494-.92,2.782,2.782,0,0,1,1.212-.584,5.16,5.16,0,0,1,1.8-.09,4.591,4.591,0,0,1,2.267.718,1.617,1.617,0,0,1,.853,1.5,1.579,1.579,0,0,1-1.145,1.324A5.265,5.265,0,0,1,23.172,157.889Zm.045-.539a3.57,3.57,0,0,0,1.863-.224,1.045,1.045,0,0,0,.18-1.93,4.073,4.073,0,0,0-1.908-.584,5.468,5.468,0,0,0-1.5.067,1.609,1.609,0,0,0-.831.4.918.918,0,0,0-.359.651,1.107,1.107,0,0,0,.561,1.033A4.4,4.4,0,0,0,23.217,157.35Z" transform="translate(-19.85 -123.994)"/><path class="a" d="M28.263,140.617,22,139.2l.382-1.728a1.612,1.612,0,0,1,.359-.763,1.336,1.336,0,0,1,.673-.292,3,3,0,0,1,.988.045,2.215,2.215,0,0,1,1.077.539,1.286,1.286,0,0,1,.382.943,1.718,1.718,0,0,1,.426-.247,4.769,4.769,0,0,1,.9-.224l1.863-.292-.135.651-1.414.224a7.765,7.765,0,0,0-1.122.225,1.066,1.066,0,0,0-.426.224.758.758,0,0,0-.18.382l-.135.606,2.783.629Zm-3.389-1.3.247-1.1a1.02,1.02,0,0,0,0-.584.919.919,0,0,0-.292-.382,1.843,1.843,0,0,0-.561-.247,1.136,1.136,0,0,0-.786.045.727.727,0,0,0-.4.561l-.269,1.235Z" transform="translate(-21.439 -110.314)"/><path class="a" d="M32.31,122.861l-5.365-1.841-.426,1.235-.718-.247L26.833,119l.718.247-.426,1.257,5.365,1.841Z" transform="translate(-24.386 -96.823)"/><path class="a" d="M37.314,109.267,31.5,106.528l.224-.471,2.379,1.122.9-1.886-2.379-1.122.224-.471,5.814,2.739-.224.471-2.739-1.3-.9,1.886,2.738,1.3Z" transform="translate(-28.806 -84.957)"/><path class="a" d="M45.332,94.359,39.9,90.947,41.426,88.5l.651.4-1.257,2,1.661,1.033,1.167-1.886.651.4-1.167,1.886L45,93.506l1.3-2.088.651.4Z" transform="translate(-35.321 -73.169)"/><path class="a" d="M56.363,84.757,52.3,79.549l.359-.449,6.061,2.694-.382.471L56.5,81.434l-1.033,1.324,1.257,1.549ZM55.016,82.22l.853-1.077-1.661-.786q-.774-.37-1.212-.606a11.321,11.321,0,0,1,.831.943Z" transform="translate(-44.937 -65.879)"/><path class="a" d="M64.736,69.672l.292-.4a2.431,2.431,0,0,0,.718.449,1.187,1.187,0,0,0,.629.045,1.065,1.065,0,0,0,.539-.292.9.9,0,0,0,.292-.741,1.191,1.191,0,0,0-.382-.741A1.316,1.316,0,0,0,66.4,67.7a.992.992,0,0,0-.449-.045,4.2,4.2,0,0,0-.853.314,3.324,3.324,0,0,1-.875.269,1.5,1.5,0,0,1-.673-.135,2.262,2.262,0,0,1-1.279-1.616,1.25,1.25,0,0,1,.382-1.077,1.326,1.326,0,0,1,.718-.382,1.539,1.539,0,0,1,.831.09,2.836,2.836,0,0,1,.875.584l-.314.4a1.661,1.661,0,0,0-.853-.449.864.864,0,0,0-.7.269.842.842,0,0,0-.292.673.994.994,0,0,0,.314.651.814.814,0,0,0,.561.292,1.849,1.849,0,0,0,.853-.247,5.292,5.292,0,0,1,.853-.337,1.4,1.4,0,0,1,.853.067,2.217,2.217,0,0,1,.808.539,2.632,2.632,0,0,1,.584.853,1.46,1.46,0,0,1,.112.853,1.356,1.356,0,0,1-.4.741,1.378,1.378,0,0,1-1.257.426A2.327,2.327,0,0,1,64.736,69.672Z" transform="translate(-52.66 -54.947)"/><path class="a" d="M76.473,57.65l-3.591-4.377-1.01.831L71.4,53.52l2.447-2.02.471.584-1.033.831,3.591,4.377Z" transform="translate(-59.75 -44.474)"/><path class="a" d="M94.01,50.254,91.9,43.992l.471-.292,4.8,4.557-.516.314-1.414-1.414-1.437.9.651,1.886ZM93.583,47.4l1.145-.718-1.3-1.279c-.4-.4-.718-.718-.943-.988a10.569,10.569,0,0,1,.471,1.167Z" transform="translate(-75.649 -38.425)"/><path class="a" d="M108.536,37.567l-.314-.7,1.526-.718,1.01,2.155a3.1,3.1,0,0,1-.4,1.033,1.523,1.523,0,0,1-.673.584,1.553,1.553,0,0,1-1.1.09,2.7,2.7,0,0,1-1.145-.718,5.141,5.141,0,0,1-.988-1.5,6.081,6.081,0,0,1-.539-1.773,2.542,2.542,0,0,1,.157-1.347,1.534,1.534,0,0,1,.786-.763,1.4,1.4,0,0,1,.786-.135,1.361,1.361,0,0,1,.741.314,2.882,2.882,0,0,1,.741.853l-.337.382a2.706,2.706,0,0,0-.561-.629,1.152,1.152,0,0,0-.539-.224.992.992,0,0,0-.561.09,1.056,1.056,0,0,0-.561.561,1.931,1.931,0,0,0-.09.988,4.739,4.739,0,0,0,.426,1.369,3.545,3.545,0,0,0,1.19,1.571,1.24,1.24,0,0,0,1.235.135,1.329,1.329,0,0,0,.494-.449,1.824,1.824,0,0,0,.269-.651l-.516-1.077Z" transform="translate(-86.494 -30.721)"/><path class="a" d="M123.175,34.059,121.2,27.954l1.684-.539a1.657,1.657,0,0,1,.831-.09,1.437,1.437,0,0,1,.606.426,2.688,2.688,0,0,1,.471.875,2.1,2.1,0,0,1,.09,1.212,1.253,1.253,0,0,1-.628.808,1.512,1.512,0,0,1,.426.224,4.457,4.457,0,0,1,.651.651l1.212,1.437-.629.2-.92-1.1a9.4,9.4,0,0,0-.763-.853,1.022,1.022,0,0,0-.4-.247.748.748,0,0,0-.426.045l-.584.18.875,2.716Zm-.584-3.569,1.077-.359a.928.928,0,0,0,.494-.292.9.9,0,0,0,.18-.449,1.48,1.48,0,0,0-.067-.606,1.036,1.036,0,0,0-.449-.651.75.75,0,0,0-.7-.067l-1.212.382Z" transform="translate(-98.372 -25.709)"/><path class="a" d="M140.381,30.752l-1.481-6.24.516-.112,1.481,6.24Z" transform="translate(-112.099 -23.457)"/><path class="a" d="M149.319,25.6l.561.135a3.352,3.352,0,0,1-.359,1.684,1.316,1.316,0,0,1-.988.7,1.273,1.273,0,0,1-.988-.2,2.669,2.669,0,0,1-.808-1.033,6.275,6.275,0,0,1-.539-1.8,5.522,5.522,0,0,1-.022-1.818,2.506,2.506,0,0,1,.494-1.212,1.374,1.374,0,0,1,.9-.516,1.245,1.245,0,0,1,1.055.314,2.908,2.908,0,0,1,.786,1.279l-.471.269c-.314-.853-.741-1.235-1.257-1.145a.985.985,0,0,0-.651.382,2.088,2.088,0,0,0-.337.9,4.675,4.675,0,0,0,.045,1.459,4.464,4.464,0,0,0,.651,1.908,1.083,1.083,0,0,0,1.033.516.915.915,0,0,0,.673-.516A2.426,2.426,0,0,0,149.319,25.6Z" transform="translate(-117.691 -21.22)"/><path class="a" d="M166.226,20.222l.539-.022.135,3.7a6.178,6.178,0,0,1-.09,1.526,1.71,1.71,0,0,1-.471.965,1.325,1.325,0,0,1-.92.382,1.343,1.343,0,0,1-1.212-.584,4.272,4.272,0,0,1-.471-2.177l-.135-3.7.539-.022.135,3.7a4.765,4.765,0,0,0,.157,1.257,1.179,1.179,0,0,0,.359.584.864.864,0,0,0,.584.18.889.889,0,0,0,.808-.449,3.627,3.627,0,0,0,.2-1.639Z" transform="translate(-131.254 -20.2)"/><path class="a" d="M180.1,26.8l.4-6.4.539.045-.359,5.657,1.975.135-.045.763Z" transform="translate(-144.051 -20.355)"/><path class="a" d="M192.794,27.532l.808-5.612-1.3-.18.112-.741,3.143.449-.112.741-1.3-.18-.808,5.612Z" transform="translate(-153.512 -20.82)"/><path class="a" d="M208.225,24.251l.516.135-.92,3.591a7.35,7.35,0,0,1-.516,1.437,1.76,1.76,0,0,1-.718.786,1.348,1.348,0,0,1-.988.112,1.3,1.3,0,0,1-.988-.9,4.257,4.257,0,0,1,.18-2.222l.92-3.591.516.135-.92,3.591a6.482,6.482,0,0,0-.224,1.257,1.119,1.119,0,0,0,.18.651.766.766,0,0,0,.494.337.9.9,0,0,0,.9-.2,3.661,3.661,0,0,0,.651-1.526Z" transform="translate(-162.995 -22.837)"/><path class="a" d="M217.4,34.571l2.334-5.971,1.661.651a1.446,1.446,0,0,1,.7.471,1.3,1.3,0,0,1,.18.718,2.659,2.659,0,0,1-.2.965,2.109,2.109,0,0,1-.7.988,1.284,1.284,0,0,1-.988.224,1.441,1.441,0,0,1,.18.449,4,4,0,0,1,.09.92l.022,1.886-.629-.247V34.189A11.34,11.34,0,0,0,220,33.044a.945.945,0,0,0-.157-.449.773.773,0,0,0-.359-.247l-.561-.224-1.033,2.649Zm1.8-3.143,1.055.4a1.111,1.111,0,0,0,.561.09.877.877,0,0,0,.426-.224,1.067,1.067,0,0,0,.314-.516,1.223,1.223,0,0,0,.067-.786.77.77,0,0,0-.494-.494l-1.167-.471Z" transform="translate(-172.978 -26.714)"/><path class="a" d="M230,43.038l4.377-4.938.494.269L233.3,44.812l-.539-.292.494-1.93-1.481-.786-1.3,1.5Zm2.245-1.8,1.212.629.471-1.773c.135-.539.269-.988.382-1.3-.247.337-.494.673-.763.988Z" transform="translate(-182.75 -34.082)"/><path class="a" d="M244.1,49.142l3.569-5.342.449.292-3.143,4.714,1.639,1.1-.426.629Z" transform="translate(-193.685 -38.503)"/><path class="a" d="M265.182,56.728l.4.359-2.447,2.783a6.69,6.69,0,0,1-1.122,1.055,1.885,1.885,0,0,1-1.01.382,1.232,1.232,0,0,1-.92-.359,1.274,1.274,0,0,1-.471-1.257,4.258,4.258,0,0,1,1.167-1.908L263.229,55l.4.359-2.447,2.783a5.862,5.862,0,0,0-.763,1.01,1.291,1.291,0,0,0-.135.673.958.958,0,0,0,1.19.763,3.455,3.455,0,0,0,1.279-1.055Z" transform="translate(-205.698 -47.189)"/><path class="a" d="M268.3,71.865l4.781-4.265.359.4-2.379,4.938,3.771-3.367.337.382-4.781,4.265-.359-.4,2.379-4.938-3.771,3.367Z" transform="translate(-212.453 -56.96)"/><path class="a" d="M278.9,85.483l5.118-3.883.314.426-5.118,3.883Z" transform="translate(-220.673 -67.818)"/><path class="a" d="M284.3,89.981l4.557-4.781.314.471L285.8,89.083c-.269.269-.516.516-.763.741.337-.135.673-.269.988-.382l4.512-1.616.292.449-6.24,2.177Z" transform="translate(-224.861 -70.61)"/><path class="a" d="M289.1,104.173l5.746-2.873,1.3,2.581-.673.337-1.055-2.11-1.751.875.988,1.975-.673.337L292,103.32l-1.953.988,1.1,2.2-.673.337Z" transform="translate(-228.584 -83.096)"/><path class="a" d="M295.3,119.177,301.338,117l.606,1.661a1.485,1.485,0,0,1,.112.831,1.367,1.367,0,0,1-.4.606,2.842,2.842,0,0,1-.853.494,2.354,2.354,0,0,1-1.212.135,1.281,1.281,0,0,1-.831-.584,1.669,1.669,0,0,1-.224.449,5.75,5.75,0,0,1-.628.673l-1.414,1.257-.224-.629,1.077-.965a7.251,7.251,0,0,0,.831-.808.7.7,0,0,0,.2-.831l-.2-.584-2.671.965Zm3.569-.741.382,1.077a1.044,1.044,0,0,0,.314.494.723.723,0,0,0,.449.157,1.375,1.375,0,0,0,.584-.09,1.235,1.235,0,0,0,.651-.471.751.751,0,0,0,.045-.7l-.427-1.19Z" transform="translate(-233.392 -95.272)"/><path class="a" d="M303,136.434l.18.471a2.7,2.7,0,0,0-.763.359,1.336,1.336,0,0,0-.382.494.986.986,0,0,0-.045.629.9.9,0,0,0,.471.651,1.051,1.051,0,0,0,.83.067,1.5,1.5,0,0,0,.471-.2.73.73,0,0,0,.269-.359,4.251,4.251,0,0,0,.18-.9,2.592,2.592,0,0,1,.247-.875,1.635,1.635,0,0,1,.471-.494,2.326,2.326,0,0,1,.718-.314,2.005,2.005,0,0,1,1.324.09,1.225,1.225,0,0,1,.718.9,1.4,1.4,0,0,1-.045.808,1.342,1.342,0,0,1-.539.651,2.615,2.615,0,0,1-.943.426l-.18-.471a1.544,1.544,0,0,0,.83-.494.84.84,0,0,0,.135-.741.871.871,0,0,0-.4-.606.97.97,0,0,0-.718-.067.913.913,0,0,0-.539.314,1.746,1.746,0,0,0-.247.853,3.831,3.831,0,0,1-.18.9,1.645,1.645,0,0,1-.494.673,2.372,2.372,0,0,1-.9.4,2.688,2.688,0,0,1-1.032.045,1.7,1.7,0,0,1-.786-.359,1.33,1.33,0,0,1-.4-.741,1.4,1.4,0,0,1,.314-1.279A2.46,2.46,0,0,1,303,136.434Z" transform="translate(-237.976 -109.925)"/><path class="a" d="M303.5,152.188l6.352-.988.09.516-6.352.988Z" transform="translate(-239.751 -121.795)"/><path class="a" d="M304.6,158.041l5.634-.471-.112-1.3.763-.067.269,3.165-.763.067-.112-1.324-5.634.471Z" transform="translate(-240.604 -125.673)"/><path class="a" d="M305.045,172.692l2.716.067,3.726-1.459-.022.651-1.953.741c-.382.157-.741.269-1.1.382.337.135.718.269,1.122.471l1.863.808-.022.606-3.659-1.684L305,173.208Z" transform="translate(-240.915 -137.383)"/></g></g></svg>